Coordinates
version=1
nRows=16
nColumns=40
inDegrees=yes

Units are S.I. units (second, meters, Newtons, ...)
Angles are in degrees.

endheader
time	pelvis_tilt	pelvis_list	pelvis_rotation	pelvis_tx	pelvis_ty	pelvis_tz	hip_flexion_r	hip_adduction_r	hip_rotation_r	knee_angle_r	knee_angle_r_beta	ankle_angle_r	subtalar_angle_r	mtp_angle_r	hip_flexion_l	hip_adduction_l	hip_rotation_l	knee_angle_l	knee_angle_l_beta	ankle_angle_l	subtalar_angle_l	mtp_angle_l	lumbar_extension	lumbar_bending	lumbar_rotation	arm_flex_r	arm_add_r	arm_rot_r	elbow_flex_r	pro_sup_r	wrist_flex_r	wrist_dev_r	arm_flex_l	arm_add_l	arm_rot_l	elbow_flex_l	pro_sup_l	wrist_flex_l	wrist_dev_l
      1.11000000	     -2.10703933	      5.24854266	     -2.17102249	      0.16127188	      0.96065327	      1.38522695	     21.38836005	    -17.41149099	    -14.42312655	    -53.94085492	     -0.94144552	      0.95427941	    -17.39697199	     14.57883233	      4.80931900	     -8.23223376	     14.86087951	     -8.85047548	     -0.15446994	      2.46749428	      2.67135997	      1.02806375	     -1.28456419	     -5.57249859	     -2.68948993	      2.18457317	    -12.63398856	     -7.20969696	     24.22241350	     89.95437384	      0.00000000	      0.00000000	      7.10585050	     11.87639004	      7.97199743	     25.68761705	     89.95437384	      0.00000000	      0.00000000
      1.12000000	     -1.95886772	      4.80876005	     -1.43188952	      0.16962381	      0.96118426	      1.38308040	     21.75752813	    -16.93948108	    -15.64192060	    -52.39770349	     -0.91451245	      1.40030092	    -17.10641982	     15.87069539	      3.98263447	     -7.95138527	     14.19879884	     -8.75464149	     -0.15279732	      2.71265699	      2.73847899	      0.18539895	     -1.68182811	     -5.07716058	     -3.49564131	      1.77426003	    -12.33900143	     -8.74471346	     23.75467330	     89.95437384	      0.00000000	      0.00000000	      8.18531729	     12.39983913	      6.57285912	     26.78902499	     89.95437384	      0.00000000	      0.00000000
      1.13000000	     -2.29915278	      4.77037396	     -1.00872074	      0.17766485	      0.96063365	      1.38103926	     23.01285338	    -16.79394926	    -16.22675255	    -51.02210069	     -0.89050365	      1.67749993	    -16.56488662	     15.58888371	      3.82731028	     -8.04614371	     14.26549581	     -8.80421533	     -0.15366255	      3.00638886	      2.63949280	      0.07073071	     -1.46924695	     -4.96983267	     -4.10818852	      1.23410053	    -12.33640754	     -8.71885577	     23.47531407	     89.95437384	      0.00000000	      0.00000000	      9.22538785	     12.72228961	      6.34856548	     27.64813219	     89.95437384	      0.00000000	      0.00000000
      1.14000000	     -2.30728368	      4.01036478	      0.11234314	      0.18568372	      0.96081233	      1.37880948	     23.23735154	    -16.03837368	    -17.85804613	    -49.08639484	     -0.85671921	      1.68798316	    -16.18608754	     15.80804817	      3.32612352	     -7.35918825	     12.79002178	     -9.05735062	     -0.15808059	      3.58512871	      2.47089000	     -0.48315361	     -1.71913439	     -4.13284829	     -5.32835614	      1.03598058	    -12.08220457	     -9.91676583	     22.57663070	     89.95437384	      0.00000000	      0.00000000	     10.16950898	     13.41727528	      4.55173251	     28.89183015	     89.95437384	      0.00000000	      0.00000000
      1.15000000	     -2.61548656	      4.06297708	      0.38634213	      0.19361777	      0.96004664	      1.37700181	     24.47942791	    -15.97463203	    -18.27079094	    -47.64281986	     -0.83152407	      1.89292064	    -15.58581842	     15.51882956	      3.15250347	     -7.53301743	     12.87958962	     -9.12705845	     -0.15929722	      3.84758578	      2.39092036	     -0.58756772	     -1.53512597	     -4.12367237	     -5.72454716	      0.46460108	    -12.11896759	     -9.96119089	     22.35561487	     89.95437384	      0.00000000	      0.00000000	     11.21221073	     13.71894811	      4.35723537	     29.73929048	     89.95437384	      0.00000000	      0.00000000
      1.16000000	     -2.71093074	      3.39570864	      1.20507650	      0.20173922	      0.95978544	      1.37540702	     24.88741862	    -15.18304515	    -19.44080959	    -45.58151875	     -0.79554758	      1.88211992	    -14.73304824	     15.54239367	      2.70573554	     -6.89822000	     11.63026884	     -9.20376278	     -0.16063596	      4.37381870	      2.19117878	     -0.98287922	     -1.60527691	     -3.40714357	     -6.56196587	      0.19515696	    -11.90861344	    -11.19629257	     21.44639427	     89.95437384	      0.00000000	      0.00000000	     12.23863773	     14.35012409	      2.72990217	     30.68373361	     89.95437384	      0.00000000	      0.00000000
      1.17000000	     -2.56246776	      3.08963874	      1.67500790	      0.21010185	      0.95972494	      1.37406177	     25.18018475	    -14.72227470	    -20.26939467	    -43.60192703	     -0.76099719	      1.92872881	    -14.00622323	     15.56855189	      1.94614440	     -6.64619948	     11.24584397	     -9.16888138	     -0.16002717	      4.75502171	      2.21964151	     -1.41843991	     -1.94119950	     -3.05336651	     -6.98557627	     -0.23224011	    -11.69036195	    -12.74624236	     20.89487002	     89.95437384	      0.00000000	      0.00000000	     13.34935187	     14.82978789	      1.62332441	     31.59161649	     89.95437384	      0.00000000	      0.00000000
      1.18000000	     -2.32412874	      2.89606389	      2.02189204	      0.21866525	      0.95964493	      1.37290620	     25.35040799	    -14.31455043	    -20.97989406	    -41.53501216	     -0.72492272	      2.05459976	    -13.24988741	     15.59677306	      1.07985321	     -6.47319760	     11.05806594	     -9.11907551	     -0.15915789	      4.92795761	      2.06364098	     -2.30768303	     -2.36034975	     -2.81371466	     -7.23019517	     -0.65936197	    -11.48972491	    -14.32979928	     20.30986598	     89.95437384	      0.00000000	      0.00000000	     14.49498233	     15.29137704	      0.44153524	     32.37671069	     89.95437384	      0.00000000	      0.00000000
      1.19000000	     -2.45675622	      2.80765368	      2.21371591	      0.22699814	      0.95883280	      1.37200435	     26.06878828	    -13.93030727	    -21.27329154	    -39.54710888	     -0.69022726	      1.87590669	    -12.44064853	     15.52380003	      0.66183911	     -6.42353106	     10.90879868	     -9.13277420	     -0.15939698	      5.23695066	      1.93419564	     -2.57277376	     -2.32231344	     -2.70866160	     -7.48017928	     -1.13684953	    -11.43302033	    -14.77790547	     19.81255090	     89.95437384	      0.00000000	      0.00000000	     15.41581823	     15.69846395	     -0.11420648	     33.19244345	     89.95437384	      0.00000000	      0.00000000
      1.20000000	     -2.60027977	      2.96192104	      2.30648811	      0.23560424	      0.95779589	      1.37098641	     26.84242686	    -13.86521110	    -21.73304556	    -37.66918292	     -0.65745127	      2.05342353	    -12.05312292	     15.45913948	      0.19744659	     -6.65421370	     11.07041936	     -9.09625593	     -0.15875962	      5.58605780	      1.89537527	     -2.71361711	     -2.23512726	     -2.84868878	     -7.62146960	     -1.68009963	    -11.43212189	    -14.99724103	     19.37183150	     89.95437384	      0.00000000	      0.00000000	     16.31506352	     15.98396083	     -0.39327590	     33.84472880	     89.95437384	      0.00000000	      0.00000000
      1.21000000	     -1.75223750	      2.31632877	      2.56702202	      0.24468064	      0.95858190	      1.37077372	     25.91237777	    -12.76515782	    -22.57370398	    -34.94945490	     -0.60998306	      1.88183475	    -10.84023131	     15.64679010	     -1.44656644	     -5.84778060	     10.98193063	     -8.86960302	     -0.15480378	      5.80854624	      1.30652123	     -3.67102580	     -3.34058895	     -2.10823202	     -7.64318793	     -1.83385494	    -11.10987023	    -17.79251024	     18.42846425	     89.95437384	      0.00000000	      0.00000000	     17.53856939	     16.44778456	     -1.96250048	     34.57448927	     89.95437384	      0.00000000	      0.00000000
      1.22000000	     -1.53202571	      2.16610432	      2.62979301	      0.25347026	      0.95809483	      1.37040542	     25.99149622	    -12.18353148	    -22.87294126	    -32.64183562	     -0.56970751	      1.94004363	     -9.96901241	     15.57551820	     -2.29652075	     -5.64336464	     11.32235665	     -8.83122039	     -0.15413387	      6.00777611	      0.89434678	     -4.47672318	     -3.68903753	     -1.93719911	     -7.67212955	     -2.16731992	    -11.00809378	    -18.83854675	     17.76172398	     89.95437384	      0.00000000	      0.00000000	     18.42419894	     16.82987875	     -2.66802632	     35.31160163	     89.95437384	      0.00000000	      0.00000000
      1.23000000	     -1.37283653	      2.07026833	      2.62675391	      0.26221593	      0.95744048	      1.37021089	     26.13688922	    -11.64232019	    -23.17143862	    -30.34195277	     -0.52956698	      1.96098382	     -8.98470498	     15.50998688	     -3.07584267	     -5.50324295	     11.58390551	     -8.82388083	     -0.15400577	      6.17230196	      0.56326893	     -5.22949354	     -3.97704712	     -1.82631145	     -7.63909168	     -2.51948810	    -10.92710397	    -19.70298272	     17.16322189	     89.95437384	      0.00000000	      0.00000000	     19.26476324	     17.09361568	     -3.03048973	     35.98739481	     89.95437384	      0.00000000	      0.00000000
      1.24000000	     -1.63689037	      2.33396583	      2.65802463	      0.27112053	      0.95589106	      1.36964294	     26.95857636	    -11.62596640	    -23.36757161	    -28.58984169	     -0.49898687	      2.16274493	     -8.57022061	     15.44785190	     -3.46034751	     -5.82865342	     11.80574221	     -8.72913713	     -0.15235218	      6.50618600	      0.49810661	     -5.35607462	     -3.73692597	     -2.12051963	     -7.69077640	     -3.06952936	    -10.92894027	    -19.78105433	     16.75616836	     89.95437384	      0.00000000	      0.00000000	     19.94596757	     17.29167016	     -3.11300363	     36.53932143	     89.95437384	      0.00000000	      0.00000000
      1.25000000	     -1.33355375	      1.80667253	      2.67313757	      0.28015510	      0.95539976	      1.37006968	     26.54960573	    -10.40873305	    -23.35693831	    -25.67997202	     -0.44820006	      1.84163597	     -7.08997597	     13.41645224	     -4.28565957	     -5.03183748	     12.77143455	     -8.83468604	     -0.15419436	      5.60767430	     -0.64827157	    -11.26267682	     -4.18236808	     -1.55799105	     -7.61246784	     -3.29149139	    -10.79390459	    -21.33458527	     16.05329510	     89.95437384	      0.00000000	      0.00000000	     20.64713380	     17.56106743	     -3.64643049	     37.31160177	     89.95437384	      0.00000000	      0.00000000
      1.26000000	     -1.63098428	      1.97988191	      2.71588984	      0.28886585	      0.95384049	      1.36992423	     27.18713488	    -10.16749280	    -23.22778088	    -23.59990687	     -0.41189608	      1.93829973	     -6.15307289	     13.38166405	     -4.57197807	     -5.22854812	     12.75784931	     -8.83062406	     -0.15412346	      5.91107973	     -0.69256803	    -11.32638948	     -3.95056354	     -1.78643752	     -7.67825042	     -3.74598053	    -10.75717710	    -21.43713426	     15.63090124	     89.95437384	      0.00000000	      0.00000000	     21.18676819	     17.77859142	     -3.69892067	     37.89081639	     89.95437384	      0.00000000	      0.00000000
